<svg version="1.1" viewBox="0.0 0.0 403.43832020997377 477.36482939632543" fill="none" stroke="none"
    stroke-linecap="square" stroke-miterlimit="10" xmlns:xlink="http://www.w3.org/1999/xlink"
    xmlns="http://www.w3.org/2000/svg">
    <style>
        .stroke-properties { stroke: rgb(79, 235, 254); stroke-width: 24.0; stroke-linejoin: round;
        stroke-linecap: butt; }
        .background { fill: #000000; fill-opacity: 0.0; }
    </style>
    <clipPath id="p.0">
        <path d="m0 0l403.43832 0l0 477.36484l-403.43832 0l0 -477.36484z" clip-rule="nonzero" />
    </clipPath>
    <g clip-path="url(#p.0)">
        <path class="background" d="m0 0l403.43832 0l0 477.36484l-403.43832 0z" fill-rule="evenodd" />
        <!-- <path fill="#3d85c6" d="m262.80054 67.779526l0 0c0 -25.379005 20.57373 -45.952755
        45.95276 -45.952755l0 0c12.187408 0 23.875671 4.8414383 32.4935 13.459251c8.617798 8.617813
        13.4592285 20.306076 13.4592285 32.493504l0 0c0 25.379005 -20.57373 45.95276 -45.95273
        45.95276l0 0c-25.379028 0 -45.95276 -20.573753 -45.95276 -45.95276zm0 0l0 0c0 25.379005
        20.57373 45.95276 45.95276 45.95276l0 0c25.378998 0 45.95273 -20.573753 45.95273 -45.95276l0
        0c0 -25.379005 -20.57373 -45.952755 -45.95273 -45.952755l0 0c-25.379028 0 -45.95276 20.57375
        -45.95276 45.952755z" fill-rule="evenodd" /> -->
        <path class="stroke-properties"
            d="m262.80054 67.779526l0 0c0 -25.379005 20.57373 -45.952755 45.95276 -45.952755l0 0c12.187408 0 23.875671 4.8414383 32.4935 13.459251c8.617798 8.617813 13.4592285 20.306076 13.4592285 32.493504l0 0c0 25.379005 -20.57373 45.95276 -45.95273 45.95276l0 0c-25.379028 0 -45.95276 -20.573753 -45.95276 -45.95276zm0 0l0 0c0 25.379005 20.57373 45.95276 45.95276 45.95276l0 0c25.378998 0 45.95273 -20.573753 45.95273 -45.95276l0 0c0 -25.379005 -20.57373 -45.952755 -45.95273 -45.952755l0 0c-25.379028 0 -45.95276 20.57375 -45.95276 45.952755z"
            fill-rule="evenodd" />
        <!-- <path fill="#3d85c6" d="m32.4147 341.60892l0 0c0 -25.378998 20.57375 -45.95276
        45.952755 -45.95276l0 0c12.187431 0 23.875694 4.841461 32.493507 13.459259c8.617813 8.617828
        13.459251 20.306091 13.459251 32.4935l0 0c0 25.378998 -20.573753 45.95276 -45.95276
        45.95276l0 0c-25.379005 0 -45.952755 -20.573761 -45.952755 -45.95276zm0 0l0 0c0 25.378998
        20.57375 45.95276 45.952755 45.95276l0 0c25.379005 0 45.95276 -20.573761 45.95276
        -45.95276l0 0c0 -25.378998 -20.573753 -45.95276 -45.95276 -45.95276l0 0c-25.379005 0
        -45.952755 20.573761 -45.952755 45.95276z" fill-rule="evenodd" /> -->
        <path class="stroke-properties"
            d="m32.4147 341.60892l0 0c0 -25.378998 20.57375 -45.95276 45.952755 -45.95276l0 0c12.187431 0 23.875694 4.841461 32.493507 13.459259c8.617813 8.617828 13.459251 20.306091 13.459251 32.4935l0 0c0 25.378998 -20.573753 45.95276 -45.95276 45.95276l0 0c-25.379005 0 -45.952755 -20.573761 -45.952755 -45.95276zm0 0l0 0c0 25.378998 20.57375 45.95276 45.952755 45.95276l0 0c25.379005 0 45.95276 -20.573761 45.95276 -45.95276l0 0c0 -25.378998 -20.573753 -45.95276 -45.95276 -45.95276l0 0c-25.379005 0 -45.952755 20.573761 -45.952755 45.95276z"
            fill-rule="evenodd" />
        <!-- <path fill="#3d85c6" d="m19.010498 96.91338l0 0c0 -25.379005 20.57375 -45.952755
        45.95276 -45.952755l0 0c12.187424 0 23.875687 4.8414383 32.4935 13.459255c8.617813 8.617813
        13.459251 20.306076 13.459251 32.4935l0 0c0 25.379005 -20.573746 45.95275 -45.95275
        45.95275l0 0c-25.37901 0 -45.95276 -20.573746 -45.95276 -45.95275zm0 0l0 0c0 25.379005
        20.57375 45.95275 45.95276 45.95275l0 0c25.379005 0 45.95275 -20.573746 45.95275 -45.95275l0
        0c0 -25.379005 -20.573746 -45.952755 -45.95275 -45.952755l0 0c-25.37901 0 -45.95276 20.57375
        -45.95276 45.952755z" fill-rule="evenodd" /> -->
        <path class="stroke-properties"
            d="m19.010498 96.91338l0 0c0 -25.379005 20.57375 -45.952755 45.95276 -45.952755l0 0c12.187424 0 23.875687 4.8414383 32.4935 13.459255c8.617813 8.617813 13.459251 20.306076 13.459251 32.4935l0 0c0 25.379005 -20.573746 45.95275 -45.95275 45.95275l0 0c-25.37901 0 -45.95276 -20.573746 -45.95276 -45.95275zm0 0l0 0c0 25.379005 20.57375 45.95275 45.95276 45.95275l0 0c25.379005 0 45.95275 -20.573746 45.95275 -45.95275l0 0c0 -25.379005 -20.573746 -45.952755 -45.95275 -45.952755l0 0c-25.37901 0 -45.95276 20.57375 -45.95276 45.952755z"
            fill-rule="evenodd" />
        <!-- <path fill="#3d85c6" d="m291.2126 406.70865l0 0c0 -25.378998 20.573761 -45.95273
        45.95276 -45.95273l0 0c12.187439 0 23.875702 4.8414307 32.49353 13.4592285c8.617798 8.617828
        13.4592285 20.306091 13.4592285 32.4935l0 0c0 25.379028 -20.57373 45.95276 -45.95276
        45.95276l0 0c-25.378998 0 -45.95276 -20.57373 -45.95276 -45.95276zm0 0l0 0c0 25.379028
        20.573761 45.95276 45.95276 45.95276l0 0c25.379028 0 45.95276 -20.57373 45.95276 -45.95276l0
        0c0 -25.378998 -20.57373 -45.95273 -45.95276 -45.95273l0 0c-25.378998 0 -45.95276 20.57373
        -45.95276 45.95273z" fill-rule="evenodd" /> -->
        <path class="stroke-properties"
            d="m291.2126 406.70865l0 0c0 -25.378998 20.573761 -45.95273 45.95276 -45.95273l0 0c12.187439 0 23.875702 4.8414307 32.49353 13.4592285c8.617798 8.617828 13.4592285 20.306091 13.4592285 32.4935l0 0c0 25.379028 -20.57373 45.95276 -45.95276 45.95276l0 0c-25.378998 0 -45.95276 -20.57373 -45.95276 -45.95276zm0 0l0 0c0 25.379028 20.573761 45.95276 45.95276 45.95276l0 0c25.379028 0 45.95276 -20.57373 45.95276 -45.95276l0 0c0 -25.378998 -20.57373 -45.95273 -45.95276 -45.95273l0 0c-25.378998 0 -45.95276 20.57373 -45.95276 45.95273z"
            fill-rule="evenodd" />
        <!-- <path fill="#3d85c6" d="m151.46194 212.07611l0 0c0 -25.378998 20.573746 -45.95276
        45.95276 -45.95276l0 0c12.187424 0 23.875687 4.841446 32.4935 13.459259c8.617813 8.617813
        13.459244 20.306076 13.459244 32.4935l0 0c0 25.379013 -20.573746 45.95276 -45.952744
        45.95276l0 0c-25.379013 0 -45.95276 -20.573746 -45.95276 -45.95276zm0 0l0 0c0 25.379013
        20.573746 45.95276 45.95276 45.95276l0 0c25.378998 0 45.952744 -20.573746 45.952744
        -45.95276l0 0c0 -25.378998 -20.573746 -45.95276 -45.952744 -45.95276l0 0c-25.379013 0
        -45.95276 20.573761 -45.95276 45.95276z" fill-rule="evenodd" /> -->
        <path class="stroke-properties center-circle"
            d="m151.46194 212.07611l0 0c0 -25.378998 20.573746 -45.95276 45.95276 -45.95276l0 0c12.187424 0 23.875687 4.841446 32.4935 13.459259c8.617813 8.617813 13.459244 20.306076 13.459244 32.4935l0 0c0 25.379013 -20.573746 45.95276 -45.952744 45.95276l0 0c-25.379013 0 -45.95276 -20.573746 -45.95276 -45.95276zm0 0l0 0c0 25.379013 20.573746 45.95276 45.95276 45.95276l0 0c25.378998 0 45.952744 -20.573746 45.952744 -45.95276l0 0c0 -25.378998 -20.573746 -45.95276 -45.952744 -45.95276l0 0c-25.379013 0 -45.95276 20.573761 -45.95276 45.95276z"
            fill-rule="evenodd" />
        <!-- <path fill="#000000" fill-opacity="0.0" d="m229.9082 179.58261l46.362213 -79.30709"
        fill-rule="evenodd" /> -->
        <path class="stroke-properties" d="m229.9082 179.58261l46.362213 -79.30709"
            fill-rule="evenodd" />
        <!-- <path fill="#000000" fill-opacity="0.0" d="m164.92119 179.58261l-67.46456 -50.173233"
        fill-rule="evenodd" /> -->
        <path class="stroke-properties" d="m164.92119 179.58261l-67.46456 -50.173233"
            fill-rule="evenodd" />
        <!-- <path fill="#000000" fill-opacity="0.0" d="m164.92119 244.56963l-54.04724 64.535416"
        fill-rule="evenodd" /> -->
        <path class="stroke-properties" d="m164.92119 244.56963l-54.04724 64.535416"
            fill-rule="evenodd" />
        <!-- <path fill="#000000" fill-opacity="0.0" d="m229.9082 244.56963l74.77167 129.6378"
        fill-rule="evenodd" /> -->
        <path class="stroke-properties" d="m229.9082 244.56963l74.77167 129.6378"
            fill-rule="evenodd" />
    </g>
</svg>