<svg version="1.1" viewBox="0.0 0.0 403.43832020997377 477.36482939632543" fill="none" stroke="none"
    stroke-linecap="square" stroke-miterlimit="10" xmlns:xlink="http://www.w3.org/1999/xlink"
    xmlns="http://www.w3.org/2000/svg" width="403.4383239746094" height="477.3648376464844">
    <style>
        .stroke-properties { stroke: rgb(79, 235, 254); stroke-width: 24.0; stroke-linejoin: round;
        stroke-linecap: butt; }
        .background { fill: #000000; fill-opacity: 0.0; }
        /***************************************************
        * Generated by SVG Artista on 7/24/2024, 12:08:31 PM
        * MIT license (https://opensource.org/licenses/MIT)
        * W. https://svgartista.net
        **************************************************/

        @-webkit-keyframes animate-svg-stroke-1 {
        0% {
        stroke-dashoffset: 1763.6063232421875px;
        stroke-dasharray: 1763.6063232421875px;
        }

        100% {
        stroke-dashoffset: 0;
        stroke-dasharray: 1763.6063232421875px;
        }
        }

        @keyframes animate-svg-stroke-1 {
        0% {
        stroke-dashoffset: 1763.6063232421875px;
        stroke-dasharray: 1763.6063232421875px;
        }

        100% {
        stroke-dashoffset: 0;
        stroke-dasharray: 1763.6063232421875px;
        }
        }

        .svg-elem-1 {
        -webkit-animation: animate-svg-stroke-1 1s cubic-bezier(0.785, 0.135, 0.15, 0.86) 0s both,
        animate-svg-fill-1 0.7s cubic-bezier(0.47, 0, 0.745, 0.715) 0.8s both;
        animation: animate-svg-stroke-1 1s cubic-bezier(0.785, 0.135, 0.15, 0.86) 0s both,
        animate-svg-fill-1 0.7s cubic-bezier(0.47, 0, 0.745, 0.715) 0.8s both;
        }

        @-webkit-keyframes animate-svg-stroke-2 {
        0% {
        stroke-dashoffset: 1763.6063232421875px;
        stroke-dasharray: 1763.6063232421875px;
        }

        100% {
        stroke-dashoffset: 0;
        stroke-dasharray: 1763.6063232421875px;
        }
        }

        @keyframes animate-svg-stroke-2 {
        0% {
        stroke-dashoffset: 1763.6063232421875px;
        stroke-dasharray: 1763.6063232421875px;
        }

        100% {
        stroke-dashoffset: 0;
        stroke-dasharray: 1763.6063232421875px;
        }
        }

        @-webkit-keyframes animate-svg-fill-2 {
        0% {
        fill: transparent;
        }

        100% {
        fill: rgb(0, 0, 0);
        }
        }

        @keyframes animate-svg-fill-2 {
        0% {
        fill: transparent;
        }

        100% {
        fill: rgb(0, 0, 0);
        }
        }

        .svg-elem-2 {
        -webkit-animation: animate-svg-stroke-2 1s cubic-bezier(0.785, 0.135, 0.15, 0.86) 0.12s
        both,
        animate-svg-fill-2 0.7s cubic-bezier(0.47, 0, 0.745, 0.715) 0.9s both;
        animation: animate-svg-stroke-2 1s cubic-bezier(0.785, 0.135, 0.15, 0.86) 0.12s both,
        animate-svg-fill-2 0.7s cubic-bezier(0.47, 0, 0.745, 0.715) 0.9s both;
        }

        @-webkit-keyframes animate-svg-stroke-3 {
        0% {
        stroke-dashoffset: 579.53125px;
        stroke-dasharray: 579.53125px;
        }

        100% {
        stroke-dashoffset: 0;
        stroke-dasharray: 579.53125px;
        }
        }

        @keyframes animate-svg-stroke-3 {
        0% {
        stroke-dashoffset: 579.53125px;
        stroke-dasharray: 579.53125px;
        }

        100% {
        stroke-dashoffset: 0;
        stroke-dasharray: 579.53125px;
        }
        }

        .svg-elem-3 {
        -webkit-animation: animate-svg-stroke-3 1s cubic-bezier(0.785, 0.135, 0.15, 0.86) 0.24s
        both,
        animate-svg-fill-3 0.7s cubic-bezier(0.47, 0, 0.745, 0.715) 1s both;
        animation: animate-svg-stroke-3 1s cubic-bezier(0.785, 0.135, 0.15, 0.86) 0.24s both,
        animate-svg-fill-3 0.7s cubic-bezier(0.47, 0, 0.745, 0.715) 1s both;
        }

        @-webkit-keyframes animate-svg-stroke-4 {
        0% {
        stroke-dashoffset: 579.5314331054688px;
        stroke-dasharray: 579.5314331054688px;
        }

        100% {
        stroke-dashoffset: 0;
        stroke-dasharray: 579.5314331054688px;
        }
        }

        @keyframes animate-svg-stroke-4 {
        0% {
        stroke-dashoffset: 579.5314331054688px;
        stroke-dasharray: 579.5314331054688px;
        }

        100% {
        stroke-dashoffset: 0;
        stroke-dasharray: 579.5314331054688px;
        }
        }

        .svg-elem-4 {
        -webkit-animation: animate-svg-stroke-4 1s cubic-bezier(0.785, 0.135, 0.15, 0.86) 0.36s
        both,
        animate-svg-fill-4 0.7s cubic-bezier(0.47, 0, 0.745, 0.715) 1.1s both;
        animation: animate-svg-stroke-4 1s cubic-bezier(0.785, 0.135, 0.15, 0.86) 0.36s both,
        animate-svg-fill-4 0.7s cubic-bezier(0.47, 0, 0.745, 0.715) 1.1s both;
        }

        @-webkit-keyframes animate-svg-stroke-5 {
        0% {
        stroke-dashoffset: 579.5305786132812px;
        stroke-dasharray: 579.5305786132812px;
        }

        100% {
        stroke-dashoffset: 0;
        stroke-dasharray: 579.5305786132812px;
        }
        }

        @keyframes animate-svg-stroke-5 {
        0% {
        stroke-dashoffset: 579.5305786132812px;
        stroke-dasharray: 579.5305786132812px;
        }

        100% {
        stroke-dashoffset: 0;
        stroke-dasharray: 579.5305786132812px;
        }
        }

        .svg-elem-5 {
        -webkit-animation: animate-svg-stroke-5 1s cubic-bezier(0.785, 0.135, 0.15, 0.86) 0.48s
        both,
        animate-svg-fill-5 0.7s cubic-bezier(0.47, 0, 0.745, 0.715) 1.2000000000000002s both;
        animation: animate-svg-stroke-5 1s cubic-bezier(0.785, 0.135, 0.15, 0.86) 0.48s both,
        animate-svg-fill-5 0.7s cubic-bezier(0.47, 0, 0.745, 0.715) 1.2000000000000002s both;
        }

        @-webkit-keyframes animate-svg-stroke-6 {
        0% {
        stroke-dashoffset: 579.53125px;
        stroke-dasharray: 579.53125px;
        }

        100% {
        stroke-dashoffset: 0;
        stroke-dasharray: 579.53125px;
        }
        }

        @keyframes animate-svg-stroke-6 {
        0% {
        stroke-dashoffset: 579.53125px;
        stroke-dasharray: 579.53125px;
        }

        100% {
        stroke-dashoffset: 0;
        stroke-dasharray: 579.53125px;
        }
        }

        .svg-elem-6 {
        -webkit-animation: animate-svg-stroke-6 1s cubic-bezier(0.785, 0.135, 0.15, 0.86) 0.6s both,
        animate-svg-fill-6 0.7s cubic-bezier(0.47, 0, 0.745, 0.715) 1.3s both;
        animation: animate-svg-stroke-6 1s cubic-bezier(0.785, 0.135, 0.15, 0.86) 0.6s both,
        animate-svg-fill-6 0.7s cubic-bezier(0.47, 0, 0.745, 0.715) 1.3s both;
        }

        @-webkit-keyframes animate-svg-stroke-7 {
        0% {
        stroke-dashoffset: 579.5313720703125px;
        stroke-dasharray: 579.5313720703125px;
        }

        100% {
        stroke-dashoffset: 0;
        stroke-dasharray: 579.5313720703125px;
        }
        }

        @keyframes animate-svg-stroke-7 {
        0% {
        stroke-dashoffset: 579.5313720703125px;
        stroke-dasharray: 579.5313720703125px;
        }

        100% {
        stroke-dashoffset: 0;
        stroke-dasharray: 579.5313720703125px;
        }
        }

        .svg-elem-7 {
        -webkit-animation: animate-svg-stroke-7 1s cubic-bezier(0.785, 0.135, 0.15, 0.86) 0.72s
        both,
        animate-svg-fill-7 0.7s cubic-bezier(0.47, 0, 0.745, 0.715) 1.4000000000000001s both;
        animation: animate-svg-stroke-7 1s cubic-bezier(0.785, 0.135, 0.15, 0.86) 0.72s both,
        animate-svg-fill-7 0.7s cubic-bezier(0.47, 0, 0.745, 0.715) 1.4000000000000001s both;
        }

        @-webkit-keyframes animate-svg-stroke-8 {
        0% {
        stroke-dashoffset: 93.86441040039062px;
        stroke-dasharray: 93.86441040039062px;
        }

        100% {
        stroke-dashoffset: 0;
        stroke-dasharray: 93.86441040039062px;
        }
        }

        @keyframes animate-svg-stroke-8 {
        0% {
        stroke-dashoffset: 93.86441040039062px;
        stroke-dasharray: 93.86441040039062px;
        }

        100% {
        stroke-dashoffset: 0;
        stroke-dasharray: 93.86441040039062px;
        }
        }

        .svg-elem-8 {
        -webkit-animation: animate-svg-stroke-8 1s cubic-bezier(0.785, 0.135, 0.15, 0.86) 0.84s
        both,
        animate-svg-fill-8 0.7s cubic-bezier(0.47, 0, 0.745, 0.715) 1.5s both;
        animation: animate-svg-stroke-8 1s cubic-bezier(0.785, 0.135, 0.15, 0.86) 0.84s both,
        animate-svg-fill-8 0.7s cubic-bezier(0.47, 0, 0.745, 0.715) 1.5s both;
        }

        @-webkit-keyframes animate-svg-stroke-9 {
        0% {
        stroke-dashoffset: 86.07627868652344px;
        stroke-dasharray: 86.07627868652344px;
        }

        100% {
        stroke-dashoffset: 0;
        stroke-dasharray: 86.07627868652344px;
        }
        }

        @keyframes animate-svg-stroke-9 {
        0% {
        stroke-dashoffset: 86.07627868652344px;
        stroke-dasharray: 86.07627868652344px;
        }

        100% {
        stroke-dashoffset: 0;
        stroke-dasharray: 86.07627868652344px;
        }
        }

        .svg-elem-9 {
        -webkit-animation: animate-svg-stroke-9 1s cubic-bezier(0.785, 0.135, 0.15, 0.86) 0.96s
        both,
        animate-svg-fill-9 0.7s cubic-bezier(0.47, 0, 0.745, 0.715) 1.6s both;
        animation: animate-svg-stroke-9 1s cubic-bezier(0.785, 0.135, 0.15, 0.86) 0.96s both,
        animate-svg-fill-9 0.7s cubic-bezier(0.47, 0, 0.745, 0.715) 1.6s both;
        }

        @-webkit-keyframes animate-svg-stroke-10 {
        0% {
        stroke-dashoffset: 86.17793273925781px;
        stroke-dasharray: 86.17793273925781px;
        }

        100% {
        stroke-dashoffset: 0;
        stroke-dasharray: 86.17793273925781px;
        }
        }

        @keyframes animate-svg-stroke-10 {
        0% {
        stroke-dashoffset: 86.17793273925781px;
        stroke-dasharray: 86.17793273925781px;
        }

        100% {
        stroke-dashoffset: 0;
        stroke-dasharray: 86.17793273925781px;
        }
        }

        .svg-elem-10 {
        -webkit-animation: animate-svg-stroke-10 1s cubic-bezier(0.785, 0.135, 0.15, 0.86) 1.08s
        both,
        animate-svg-fill-10 0.7s cubic-bezier(0.47, 0, 0.745, 0.715) 1.7000000000000002s both;
        animation: animate-svg-stroke-10 1s cubic-bezier(0.785, 0.135, 0.15, 0.86) 1.08s both,
        animate-svg-fill-10 0.7s cubic-bezier(0.47, 0, 0.745, 0.715) 1.7000000000000002s both;
        }

        @-webkit-keyframes animate-svg-stroke-11 {
        0% {
        stroke-dashoffset: 151.6554718017578px;
        stroke-dasharray: 151.6554718017578px;
        }

        100% {
        stroke-dashoffset: 0;
        stroke-dasharray: 151.6554718017578px;
        }
        }

        @keyframes animate-svg-stroke-11 {
        0% {
        stroke-dashoffset: 151.6554718017578px;
        stroke-dasharray: 151.6554718017578px;
        }

        100% {
        stroke-dashoffset: 0;
        stroke-dasharray: 151.6554718017578px;
        }
        }

        .svg-elem-11 {
        -webkit-animation: animate-svg-stroke-11 1s cubic-bezier(0.785, 0.135, 0.15, 0.86) 1.2s
        both,
        animate-svg-fill-11 0.7s cubic-bezier(0.47, 0, 0.745, 0.715) 1.8s both;
        animation: animate-svg-stroke-11 1s cubic-bezier(0.785, 0.135, 0.15, 0.86) 1.2s both,
        animate-svg-fill-11 0.7s cubic-bezier(0.47, 0, 0.745, 0.715) 1.8s both;
        }

    </style>
    <clipPath id="p.0">
        <path d="m0 0l403.43832 0l0 477.36484l-403.43832 0l0 -477.36484z" clip-rule="nonzero"
            class="svg-elem-1"></path>
    </clipPath>
    <g clip-path="url(#p.0)">
        <path class="background svg-elem-2" d="m0 0l403.43832 0l0 477.36484l-403.43832 0z"
            fill-rule="evenodd"></path>
        <!-- <path fill="#3d85c6" d="m262.80054 67.779526l0 0c0 -25.379005 20.57373 -45.952755
        45.95276 -45.952755l0 0c12.187408 0 23.875671 4.8414383 32.4935 13.459251c8.617798 8.617813
        13.4592285 20.306076 13.4592285 32.493504l0 0c0 25.379005 -20.57373 45.95276 -45.95273
        45.95276l0 0c-25.379028 0 -45.95276 -20.573753 -45.95276 -45.95276zm0 0l0 0c0 25.379005
        20.57373 45.95276 45.95276 45.95276l0 0c25.378998 0 45.95273 -20.573753 45.95273 -45.95276l0
        0c0 -25.379005 -20.57373 -45.952755 -45.95273 -45.952755l0 0c-25.379028 0 -45.95276 20.57375
        -45.95276 45.952755z" fill-rule="evenodd" /> -->
        <path class="stroke-properties svg-elem-3"
            d="m262.80054 67.779526l0 0c0 -25.379005 20.57373 -45.952755 45.95276 -45.952755l0 0c12.187408 0 23.875671 4.8414383 32.4935 13.459251c8.617798 8.617813 13.4592285 20.306076 13.4592285 32.493504l0 0c0 25.379005 -20.57373 45.95276 -45.95273 45.95276l0 0c-25.379028 0 -45.95276 -20.573753 -45.95276 -45.95276zm0 0l0 0c0 25.379005 20.57373 45.95276 45.95276 45.95276l0 0c25.378998 0 45.95273 -20.573753 45.95273 -45.95276l0 0c0 -25.379005 -20.57373 -45.952755 -45.95273 -45.952755l0 0c-25.379028 0 -45.95276 20.57375 -45.95276 45.952755z"
            fill-rule="evenodd"></path>
        <!-- <path fill="#3d85c6" d="m32.4147 341.60892l0 0c0 -25.378998 20.57375 -45.95276
        45.952755 -45.95276l0 0c12.187431 0 23.875694 4.841461 32.493507 13.459259c8.617813 8.617828
        13.459251 20.306091 13.459251 32.4935l0 0c0 25.378998 -20.573753 45.95276 -45.95276
        45.95276l0 0c-25.379005 0 -45.952755 -20.573761 -45.952755 -45.95276zm0 0l0 0c0 25.378998
        20.57375 45.95276 45.952755 45.95276l0 0c25.379005 0 45.95276 -20.573761 45.95276
        -45.95276l0 0c0 -25.378998 -20.573753 -45.95276 -45.95276 -45.95276l0 0c-25.379005 0
        -45.952755 20.573761 -45.952755 45.95276z" fill-rule="evenodd" /> -->
        <path class="stroke-properties svg-elem-4"
            d="m32.4147 341.60892l0 0c0 -25.378998 20.57375 -45.95276 45.952755 -45.95276l0 0c12.187431 0 23.875694 4.841461 32.493507 13.459259c8.617813 8.617828 13.459251 20.306091 13.459251 32.4935l0 0c0 25.378998 -20.573753 45.95276 -45.95276 45.95276l0 0c-25.379005 0 -45.952755 -20.573761 -45.952755 -45.95276zm0 0l0 0c0 25.378998 20.57375 45.95276 45.952755 45.95276l0 0c25.379005 0 45.95276 -20.573761 45.95276 -45.95276l0 0c0 -25.378998 -20.573753 -45.95276 -45.95276 -45.95276l0 0c-25.379005 0 -45.952755 20.573761 -45.952755 45.95276z"
            fill-rule="evenodd"></path>
        <!-- <path fill="#3d85c6" d="m19.010498 96.91338l0 0c0 -25.379005 20.57375 -45.952755
        45.95276 -45.952755l0 0c12.187424 0 23.875687 4.8414383 32.4935 13.459255c8.617813 8.617813
        13.459251 20.306076 13.459251 32.4935l0 0c0 25.379005 -20.573746 45.95275 -45.95275
        45.95275l0 0c-25.37901 0 -45.95276 -20.573746 -45.95276 -45.95275zm0 0l0 0c0 25.379005
        20.57375 45.95275 45.95276 45.95275l0 0c25.379005 0 45.95275 -20.573746 45.95275 -45.95275l0
        0c0 -25.379005 -20.573746 -45.952755 -45.95275 -45.952755l0 0c-25.37901 0 -45.95276 20.57375
        -45.95276 45.952755z" fill-rule="evenodd" /> -->
        <path class="stroke-properties svg-elem-5"
            d="m19.010498 96.91338l0 0c0 -25.379005 20.57375 -45.952755 45.95276 -45.952755l0 0c12.187424 0 23.875687 4.8414383 32.4935 13.459255c8.617813 8.617813 13.459251 20.306076 13.459251 32.4935l0 0c0 25.379005 -20.573746 45.95275 -45.95275 45.95275l0 0c-25.37901 0 -45.95276 -20.573746 -45.95276 -45.95275zm0 0l0 0c0 25.379005 20.57375 45.95275 45.95276 45.95275l0 0c25.379005 0 45.95275 -20.573746 45.95275 -45.95275l0 0c0 -25.379005 -20.573746 -45.952755 -45.95275 -45.952755l0 0c-25.37901 0 -45.95276 20.57375 -45.95276 45.952755z"
            fill-rule="evenodd"></path>
        <!-- <path fill="#3d85c6" d="m291.2126 406.70865l0 0c0 -25.378998 20.573761 -45.95273
        45.95276 -45.95273l0 0c12.187439 0 23.875702 4.8414307 32.49353 13.4592285c8.617798 8.617828
        13.4592285 20.306091 13.4592285 32.4935l0 0c0 25.379028 -20.57373 45.95276 -45.95276
        45.95276l0 0c-25.378998 0 -45.95276 -20.57373 -45.95276 -45.95276zm0 0l0 0c0 25.379028
        20.573761 45.95276 45.95276 45.95276l0 0c25.379028 0 45.95276 -20.57373 45.95276 -45.95276l0
        0c0 -25.378998 -20.57373 -45.95273 -45.95276 -45.95273l0 0c-25.378998 0 -45.95276 20.57373
        -45.95276 45.95273z" fill-rule="evenodd" /> -->
        <path class="stroke-properties svg-elem-6"
            d="m291.2126 406.70865l0 0c0 -25.378998 20.573761 -45.95273 45.95276 -45.95273l0 0c12.187439 0 23.875702 4.8414307 32.49353 13.4592285c8.617798 8.617828 13.4592285 20.306091 13.4592285 32.4935l0 0c0 25.379028 -20.57373 45.95276 -45.95276 45.95276l0 0c-25.378998 0 -45.95276 -20.57373 -45.95276 -45.95276zm0 0l0 0c0 25.379028 20.573761 45.95276 45.95276 45.95276l0 0c25.379028 0 45.95276 -20.57373 45.95276 -45.95276l0 0c0 -25.378998 -20.57373 -45.95273 -45.95276 -45.95273l0 0c-25.378998 0 -45.95276 20.57373 -45.95276 45.95273z"
            fill-rule="evenodd"></path>
        <!-- <path fill="#3d85c6" d="m151.46194 212.07611l0 0c0 -25.378998 20.573746 -45.95276
        45.95276 -45.95276l0 0c12.187424 0 23.875687 4.841446 32.4935 13.459259c8.617813 8.617813
        13.459244 20.306076 13.459244 32.4935l0 0c0 25.379013 -20.573746 45.95276 -45.952744
        45.95276l0 0c-25.379013 0 -45.95276 -20.573746 -45.95276 -45.95276zm0 0l0 0c0 25.379013
        20.573746 45.95276 45.95276 45.95276l0 0c25.378998 0 45.952744 -20.573746 45.952744
        -45.95276l0 0c0 -25.378998 -20.573746 -45.95276 -45.952744 -45.95276l0 0c-25.379013 0
        -45.95276 20.573761 -45.95276 45.95276z" fill-rule="evenodd" /> -->
        <path class="stroke-properties center-circle svg-elem-7"
            d="m151.46194 212.07611l0 0c0 -25.378998 20.573746 -45.95276 45.95276 -45.95276l0 0c12.187424 0 23.875687 4.841446 32.4935 13.459259c8.617813 8.617813 13.459244 20.306076 13.459244 32.4935l0 0c0 25.379013 -20.573746 45.95276 -45.952744 45.95276l0 0c-25.379013 0 -45.95276 -20.573746 -45.95276 -45.95276zm0 0l0 0c0 25.379013 20.573746 45.95276 45.95276 45.95276l0 0c25.378998 0 45.952744 -20.573746 45.952744 -45.95276l0 0c0 -25.378998 -20.573746 -45.95276 -45.952744 -45.95276l0 0c-25.379013 0 -45.95276 20.573761 -45.95276 45.95276z"
            fill-rule="evenodd"></path>
        <!-- <path fill="#000000" fill-opacity="0.0" d="m229.9082 179.58261l46.362213 -79.30709"
        fill-rule="evenodd" /> -->
        <path class="stroke-properties svg-elem-8" d="m229.9082 179.58261l46.362213 -79.30709"
            fill-rule="evenodd"></path>
        <!-- <path fill="#000000" fill-opacity="0.0" d="m164.92119 179.58261l-67.46456 -50.173233"
        fill-rule="evenodd" /> -->
        <path class="stroke-properties svg-elem-9" d="m164.92119 179.58261l-67.46456 -50.173233"
            fill-rule="evenodd"></path>
        <!-- <path fill="#000000" fill-opacity="0.0" d="m164.92119 244.56963l-54.04724 64.535416"
        fill-rule="evenodd" /> -->
        <path class="stroke-properties svg-elem-10" d="m164.92119 244.56963l-54.04724 64.535416"
            fill-rule="evenodd"></path>
        <!-- <path fill="#000000" fill-opacity="0.0" d="m229.9082 244.56963l74.77167 129.6378"
        fill-rule="evenodd" /> -->
        <path class="stroke-properties svg-elem-11" d="m229.9082 244.56963l74.77167 129.6378"
            fill-rule="evenodd"></path>
    </g>
</svg>